<svg width="30" height="28" viewBox="0 0 30 28" fill="none" xmlns="http://www.w3.org/2000/svg">
<path d="M13.7988 0.409739C14.1983 -0.136617 15.0138 -0.136617 15.4133 0.40974L20.2471 7.02069C20.3705 7.18949 20.5438 7.31535 20.7424 7.38057L28.5236 9.93489C29.1666 10.146 29.4186 10.9216 29.0225 11.4703L24.2288 18.1104C24.1064 18.28 24.0402 18.4836 24.0396 18.6927L24.0148 26.8824C24.0127 27.5592 23.353 28.0385 22.7087 27.8313L14.9122 25.3242C14.7131 25.2602 14.499 25.2602 14.2999 25.3242L6.5035 27.8313C5.85917 28.0385 5.19942 27.5592 5.19737 26.8823L5.17257 18.6927C5.17194 18.4836 5.10577 18.28 4.98337 18.1104L0.189706 11.4703C-0.206463 10.9216 0.0455403 10.146 0.688604 9.93489L8.46972 7.38057C8.6684 7.31535 8.84163 7.18949 8.96505 7.02069L13.7988 0.409739Z" fill="white"/>
</svg>
